<?xml version="1.0" encoding="UTF-8"?>
<svg id="Capa_1" data-name="Capa 1" xmlns="http://www.w3.org/2000/svg" viewBox="0 0 761 288">
  <defs>
    <style>
      .cls-1 {
        font-family: Barlow-SemiBold, Barlow;
        font-size: 40.03px;
        font-weight: 600;
      }

      .cls-1, .cls-2, .cls-3 {
        fill: #fff;
      }

      .cls-4 {
        letter-spacing: 0em;
      }

      .cls-5 {
        letter-spacing: -.05em;
      }

      .cls-6 {
        letter-spacing: -.02em;
      }

      .cls-7 {
        letter-spacing: 0em;
      }

      .cls-2 {
        font-family: Barlow-Light, Barlow;
        font-size: 39.07px;
        font-weight: 300;
      }

      .cls-8 {
        letter-spacing: -.02em;
      }

      .cls-9 {
        letter-spacing: -.02em;
      }

      .cls-10 {
        fill: #ff9424;
      }

      .cls-10, .cls-3 {
        stroke-width: 0px;
      }

      .cls-11 {
        letter-spacing: -.01em;
      }
    </style>
  </defs>
  <rect class="cls-10" width="761" height="288"/>
  <text class="cls-1" transform="translate(46 61.22)"><tspan x="0" y="0">US</tspan><tspan class="cls-9" x="49.07" y="0">U</tspan><tspan x="73.93" y="0">ARIOS FINANCIEROS</tspan></text>
  <text class="cls-2" transform="translate(46 108.31)"><tspan x="0" y="0">Visitá nuestra web</tspan></text>
  <text class="cls-2" transform="translate(46 154.85)"><tspan x="0" y="0">www.usuariosfinancieros.gob.ar</tspan></text>
  <g>
    <path class="cls-3" d="M457.72,218.37c.92-.41,1.68-1.24,1.68-2.46,0-1.59-1.35-2.44-2.99-2.62v-.05c.92-.19,2.32-.84,2.32-2.26,0-.84-.35-1.45-.98-1.82-.6-.39-1.35-.53-2.48-.53h-5.2v.5c1.4.12,1.54.23,1.54,1.91v5.4c0,1.68-.14,1.79-1.63,1.91v.53h4.57c1.15,0,2.25-.14,3.12-.53h.03ZM453.45,209.93c0-.55.05-.6,1.17-.6s2.18.55,2.18,1.91-.98,1.91-2.09,1.91h-1.3l.04-3.22ZM453.45,216.57v-2.83h1.17c1.47,0,2.71.67,2.71,2.3s-.98,2.26-2.3,2.26c-1.11,0-1.59-.23-1.59-1.72h0ZM465.09,218.4l-.53-.05c-.67-.05-.88-.27-.6-1.06l.78-2.14h3.19l.78,1.86c.45,1.08.25,1.3-.39,1.3l-.43.05v.53h4.64v-.53c-.98-.07-1.45-.16-2-1.52l-3.42-8.44-.58.14-3.4,8.07c-.67,1.59-1.06,1.68-2.07,1.79v.53h4.02v-.53h0ZM466.29,210.89h.05l1.3,3.49h-2.66l1.31-3.49ZM477.07,217.5c-.07-.48-.14-1.28-.14-2.94v-3.36h.02l7.01,7.81h.73v-6.02l.14-2.97c.09-.55.58-.8,1.54-.85v-.53h-4.38v.53c1.15.06,1.62.3,1.75.85.06.51.14,1.31.14,2.97v3.17h-.05l-6.83-7.51h-2.82v.53c1.56.12,1.93.46,1.93,2.3v3.08l-.14,2.94c-.09.55-.58.83-1.54.88v.53h4.37v-.53c-1.15-.07-1.62-.32-1.72-.88h-.01ZM497.72,218.74c.25-.6.6-2,.85-2.87l-.58-.1c-.85,1.79-1.72,2.71-3.42,2.71-2.46,0-4.06-1.97-4.06-4.92,0-2.6,1.38-4.5,3.91-4.5,1.59,0,2.73.58,3.25,2.53l.58-.07-.3-2.73c-.58-.14-1.7-.42-3.24-.42-3.49,0-6.23,2.23-6.23,5.51,0,2.62,1.88,5.28,6.02,5.28,1.1-.03,2.19-.18,3.26-.43h-.03ZM506.08,208.38c-2.44,0-5.5,1.77-5.5,5.63,0,2.48,1.93,5.17,5.52,5.17,2.92.07,5.35-2.24,5.42-5.16,0-.12,0-.23,0-.35,0-2.96-2.14-5.28-5.45-5.28h0ZM506.28,218.49c-2.27,0-3.57-2.05-3.57-5.03,0-2.8,1.3-4.39,3.19-4.39,2.3,0,3.59,2.44,3.59,5.05,0,3.25-1.4,4.36-3.17,4.36h-.04ZM528.98,218.74c.25-.6.6-2,.85-2.87l-.58-.1c-.85,1.79-1.72,2.71-3.43,2.71-2.46,0-4.07-1.97-4.07-4.92,0-2.6,1.38-4.5,3.91-4.5,1.59,0,2.73.58,3.25,2.53l.58-.07-.3-2.73c-.58-.14-1.7-.42-3.24-.42-3.49,0-6.23,2.23-6.23,5.51,0,2.62,1.88,5.28,6.02,5.28,1.1-.03,2.19-.18,3.26-.43h-.03ZM540.93,216.21l-.6-.06c-.23.78-.55,1.28-.83,1.56-.37.37-1.11.51-2.07.51-1.03,0-1.52-.02-1.84-.18s-.43-.67-.43-1.56v-2.51h1.82c1.45,0,1.49.06,1.68,1.3h.58v-3.38h-.58c-.18,1.17-.23,1.3-1.68,1.3h-1.82v-3.27c0-.58.02-.58.67-.58h1.28c1.11,0,1.61.23,1.84.45s.41.67.58,1.47l.58-.05-.18-2.57h-8.11v.53c1.45.1,1.56.21,1.56,1.91v5.36c0,1.7-.12,1.82-1.72,1.93v.53h8.69c.14-.43.48-2.09.6-2.69h-.01ZM544.52,217.5c-.1.55-.58.83-1.54.88v.53h4.37v-.53c-1.15-.07-1.62-.32-1.72-.88-.07-.48-.14-1.28-.14-2.94v-3.36h.02l7.01,7.81h.73v-6.02l.14-2.97c.09-.55.58-.8,1.54-.85v-.53h-4.38v.53c1.15.06,1.62.3,1.75.85.06.51.14,1.31.14,2.97v3.17h-.06l-6.83-7.51h-2.82v.53c1.56.12,1.93.46,1.93,2.3v3.08l-.14,2.94h0ZM559.13,218.38v.53h5.31v-.53c-1.62-.12-1.79-.23-1.79-1.91v-7.12h1.04c.98,0,1.54.14,1.84.43.25.25.42.67.6,1.61l.58-.05-.2-3.08h-.3c-.25.3-.35.39-.78.39h-7.15c-.43,0-.65-.05-.88-.39h-.3l-.21,3.12h.55c.21-.87.41-1.28.65-1.52.25-.27.71-.53,2.07-.53h.71v7.12c0,1.68-.14,1.79-1.72,1.91h-.01ZM574.17,218.38c-1.47-.12-1.61-.23-1.61-1.91v-1.95h.69c.64,0,.8.06,1.13.65l1.59,2.5c.64.85,1.47,1.45,3.38,1.42h.35l.07-.45c-.45-.13-.86-.37-1.19-.69-.5-.5-.95-1.04-1.36-1.62l-1.49-2.27c1.28-.46,2.23-1.3,2.23-2.66.03-.86-.4-1.67-1.13-2.11-.67-.39-1.56-.53-2.62-.53h-4.99v.53c1.43.12,1.56.21,1.56,1.91v5.38c0,1.68-.14,1.79-1.63,1.91v.53h5.03v-.63ZM572.57,209.94c0-.64.05-.67,1.08-.67,1.3,0,2.37.69,2.37,2.21,0,.71-.25,1.59-.85,1.97-.48.3-1.06.37-1.54.37h-1.06v-3.88ZM588.37,218.33l-.43.05v.53h4.64v-.53c-1.01-.07-1.45-.16-2-1.52l-3.43-8.44-.58.14-3.4,8.07c-.67,1.59-1.06,1.68-2.07,1.79v.53h4.02v-.53l-.53-.05c-.67-.05-.88-.27-.6-1.06l.78-2.14h3.19l.78,1.86c.45,1.08.25,1.3-.39,1.3h0ZM585.05,214.36l1.28-3.49h.05l1.3,3.49h-2.63ZM603.45,216.17l-.6-.06c-.23.73-.5,1.3-.78,1.54-.37.41-1.11.58-2,.58-.84,0-1.3-.02-1.62-.18s-.43-.62-.43-1.52v-5.42c0-1.72.14-1.82,1.72-1.91v-.53h-5.13v.53c1.47.1,1.61.19,1.61,1.91v5.36c0,1.72-.12,1.84-1.72,1.93v.53h8.39c.14-.43.49-2.21.6-2.74h-.04ZM455.14,227.67h-5.03v.53c1.38.12,1.52.21,1.52,1.91v5.38c0,1.68-.14,1.79-1.62,1.91v.53h4.5c3.67,0,6.75-1.68,6.75-5.51,0-1.45-.6-2.64-1.38-3.36-1.11-.98-2.76-1.38-4.71-1.38h-.03ZM455.05,237.23c-1.45,0-1.63-.35-1.63-1.62v-6.32c0-.43.05-.67.16-.75s.58-.18,1.15-.18c2.78,0,4.43,1.31,4.43,4.52,0,2.64-1.28,4.39-4.11,4.39v-.04ZM471.44,236.72c-.37.37-1.11.51-2.07.51-1.03,0-1.52-.03-1.84-.19s-.43-.67-.43-1.56v-2.51h1.82c1.45,0,1.49.07,1.68,1.3h.58v-3.38h-.58c-.19,1.17-.23,1.3-1.68,1.3h-1.82v-3.27c0-.58.02-.58.67-.58h1.28c1.11,0,1.61.23,1.84.45s.41.67.58,1.47l.58-.05-.19-2.6h-8.12v.53c1.45.09,1.56.21,1.56,1.91v5.35c0,1.7-.12,1.82-1.72,1.93v.53h8.69l.59-2.69-.59-.06c-.23.78-.55,1.28-.83,1.56v.03ZM488.32,236.66c-.37.42-1.11.58-2,.58s-1.3-.03-1.62-.19-.43-.65-.43-1.52v-5.42c0-1.72.14-1.82,1.72-1.91v-.53h-5.12v.53c1.47.09,1.61.18,1.61,1.91v5.35c0,1.72-.12,1.84-1.72,1.93v.53h8.39c.14-.43.48-2.21.6-2.73l-.6-.07c-.23.73-.5,1.3-.78,1.54h-.04ZM500.7,235.88l-3.42-8.44-.58.14-3.4,7.99c-.67,1.59-1.06,1.68-2.07,1.79v.53h4.02v-.53l-.53-.05c-.67-.05-.88-.27-.6-1.06l.78-2.14h3.19l.78,1.86c.46,1.08.25,1.3-.39,1.3l-.43.05v.53h4.64v-.53c-.98-.06-1.45-.16-2.03-1.52l.02.07ZM495.17,233.38l1.28-3.49h.05l1.3,3.49h-2.63Z"/>
    <path class="cls-3" d="M518.48,235.24l-1.49-2.27c1.28-.46,2.23-1.3,2.23-2.66.03-.86-.4-1.67-1.13-2.11-.67-.39-1.56-.53-2.62-.53h-4.99v.53c1.42.12,1.56.21,1.56,1.91v5.38c0,1.68-.14,1.79-1.63,1.91v.53h5.03v-.53c-1.47-.12-1.61-.23-1.61-1.91v-1.95h.69c.64,0,.8.07,1.13.65l1.59,2.5c.64.85,1.47,1.45,3.38,1.43h.35l.06-.46c-.45-.13-.86-.37-1.19-.69-.39-.37-.8-.88-1.35-1.62v-.09ZM516.43,232.48c-.49.3-1.06.37-1.54.37h-1.06v-3.88c0-.64.05-.67,1.08-.67,1.3,0,2.37.69,2.37,2.21,0,.71-.25,1.62-.84,1.95v.02ZM530.32,236.71c-.37.37-1.11.51-2.07.51-1.04,0-1.52-.03-1.84-.19s-.43-.67-.43-1.56v-2.51h1.82c1.45,0,1.49.07,1.68,1.3h.57v-3.38h-.57c-.18,1.17-.23,1.3-1.68,1.3h-1.82v-3.26c0-.58.02-.58.67-.58h1.28c1.11,0,1.61.23,1.84.45s.41.67.58,1.47l.58-.05-.18-2.6h-8.11v.53c1.45.09,1.56.21,1.56,1.91v5.38c0,1.7-.12,1.82-1.72,1.93v.53h8.64l.6-2.69-.6-.06c-.23.78-.55,1.28-.83,1.56h.03ZM539.08,227.65h-5.08v.53c1.38.12,1.52.21,1.52,1.91v5.38c0,1.68-.14,1.79-1.61,1.91v.53h5.2v-.53c-1.62-.12-1.79-.23-1.79-1.91v-1.93l1.3.32c.21,0,.48,0,.88-.05,1.86-.23,3.42-1.28,3.42-3.19,0-2.09-1.59-2.97-3.9-2.97h.06ZM538.63,233.15c-.45,0-.89-.09-1.31-.23v-3.79c0-.78.02-.8,1.17-.8,1.47,0,2.48.71,2.48,2.32.09.66-.12,1.33-.58,1.81s-1.11.74-1.76.69h0ZM552.96,228.22c1.15.06,1.62.3,1.75.85.07.5.14,1.31.14,2.97v1.03c0,2.48-.78,4.2-3.08,4.2-2.03,0-2.89-1.52-2.89-4.02v-3.1c0-1.7.14-1.82,1.59-1.93v-.53h-5.01v.53c1.52.12,1.63.23,1.63,1.93v3.56c0,1.84.41,2.99,1.3,3.66.8.64,1.91.85,2.97.85,1.28,0,2.44-.43,3.15-1.15.92-.92,1.24-2.32,1.24-3.57v-1.43l.14-2.97c.09-.55.57-.8,1.54-.85v-.53h-4.39l-.08.5ZM553.47,222.97c-.32-.18-.55-.23-.78.16l-2.66,3.57.39.23,3.38-2.89c.41-.35.43-.65-.02-.9l-.3-.17ZM565.83,232.3v-.04c.92-.18,2.32-.85,2.32-2.25,0-.85-.35-1.45-.98-1.82-.6-.39-1.36-.53-2.48-.53h-5.2v.51c1.4.12,1.54.23,1.54,1.91v5.36c0,1.68-.14,1.79-1.63,1.91v.53h4.57c1.15,0,2.25-.14,3.12-.53.92-.42,1.68-1.24,1.68-2.46,0-1.59-1.36-2.44-2.99-2.62l.03.03ZM562.87,228.9c0-.55.05-.6,1.17-.6s2.18.55,2.18,1.91-.98,1.91-2.09,1.91h-1.3v-3.25l.04.02ZM564.45,237.27c-1.11,0-1.59-.23-1.59-1.72v-2.82h1.17c1.47,0,2.71.67,2.71,2.3s-.98,2.25-2.29,2.25h0ZM579.06,236.62c-.37.42-1.11.58-2,.58s-1.3-.03-1.62-.19-.43-.65-.43-1.52v-5.42c0-1.72.14-1.82,1.72-1.91v-.53h-5.15v.53c1.47.09,1.61.18,1.61,1.91v5.35c0,1.72-.12,1.84-1.72,1.93v.53h8.39c.14-.43.49-2.21.6-2.73l-.6-.07c-.23.73-.5,1.3-.78,1.54h-.01ZM582.32,228.16c1.47.12,1.61.21,1.61,1.91v5.37c0,1.68-.14,1.79-1.61,1.91v.53h5.01v-.53c-1.47-.12-1.61-.23-1.61-1.91v-5.38c0-1.7.14-1.79,1.61-1.91v-.53h-5.01v.53ZM595.96,237.5c-2.46,0-4.07-1.95-4.07-4.92,0-2.6,1.38-4.5,3.91-4.5,1.59,0,2.73.58,3.25,2.53l.58-.07-.3-2.73c-.58-.14-1.7-.42-3.24-.42-3.49,0-6.23,2.23-6.23,5.51,0,2.62,1.88,5.28,6.02,5.28,1.1-.03,2.19-.18,3.26-.43.25-.6.6-2.03.85-2.87l-.58-.09c-.85,1.79-1.72,2.71-3.42,2.71h-.03ZM610.99,235.87l-3.42-8.44-.58.14-3.4,8c-.67,1.59-1.06,1.68-2.07,1.79v.53h4.02v-.53l-.53-.05c-.67-.05-.88-.27-.6-1.06l.78-2.14h3.19l.78,1.86c.46,1.08.25,1.3-.39,1.3l-.43.05v.53h4.64v-.53c-.98-.06-1.45-.16-2.03-1.52l.03.06ZM605.46,233.37l1.28-3.49h.05l1.3,3.49h-2.63ZM629.58,235.87l-3.42-8.44-.58.14-3.4,8.07c-.67,1.59-1.06,1.68-2.07,1.79v.53h4.03v-.53l-.53-.05c-.67-.05-.88-.27-.6-1.06l.78-2.14h3.19l.78,1.86c.45,1.08.25,1.3-.39,1.3l-.43.05v.53h4.64v-.53c-.98-.06-1.45-.16-2-1.52h0ZM624.04,233.37l1.29-3.49h.05l1.3,3.49h-2.64ZM641.62,235.25l-1.49-2.27c1.28-.46,2.23-1.3,2.23-2.66.03-.86-.4-1.67-1.13-2.11-.67-.39-1.56-.53-2.62-.53h-4.92v.53c1.43.12,1.56.21,1.56,1.91v5.38c0,1.68-.14,1.79-1.63,1.91v.53h5.03v-.53c-1.47-.12-1.61-.23-1.61-1.91v-1.95h.69c.64,0,.8.07,1.12.65l1.62,2.5c.64.85,1.47,1.45,3.38,1.43h.35l.06-.46c-.5-.16-.92-.41-1.19-.69-.5-.5-.95-1.04-1.36-1.62l-.1-.09ZM639.57,232.49c-.47.26-1,.39-1.54.37h-1.06v-3.88c0-.64.05-.67,1.08-.67,1.3,0,2.37.69,2.37,2.21,0,.71-.25,1.62-.85,1.95v.03ZM651.72,233.55c1.95.16,2.03.27,2.03,1.3v1.61c0,.87-.85,1.01-1.62,1.01-3.1,0-4.32-2.48-4.32-4.9,0-2.82,1.62-4.52,3.9-4.52,1.49,0,2.87.48,3.33,2.57l.58-.05-.27-2.8c-1.05-.27-2.13-.41-3.21-.42-3.31,0-6.41,1.91-6.41,5.51,0,3.12,2.6,5.28,6.32,5.28,1.24,0,2.6-.37,3.67-.64-.12-.35-.16-.85-.16-1.43v-1.24c0-1.13.07-1.17,1.04-1.3v-.53h-4.85v.54ZM666.52,236.72c-.37.37-1.11.51-2.07.51-1.03,0-1.52-.03-1.84-.19s-.43-.67-.43-1.56v-2.51h1.82c1.45,0,1.49.07,1.68,1.3h.58v-3.38h-.58c-.18,1.17-.23,1.3-1.68,1.3h-1.82v-3.26c0-.58.02-.58.67-.58h1.28c1.11,0,1.61.23,1.84.45s.41.67.58,1.47l.58-.05-.18-2.6h-8.11v.53c1.45.09,1.56.21,1.56,1.91v5.38c0,1.7-.12,1.82-1.72,1.93v.53h8.68c.23-.89.43-1.79.6-2.69l-.6-.06c-.23.78-.55,1.28-.82,1.56h0ZM677.61,228.19c1.15.06,1.62.3,1.75.85.06.5.14,1.31.14,2.97v3.17h-.05l-6.83-7.51h-2.82v.53c1.56.12,1.93.45,1.93,2.3v3.08l-.14,2.94c-.09.55-.58.83-1.54.87v.53h4.37v-.53c-1.15-.06-1.62-.32-1.72-.87-.07-.49-.14-1.29-.14-2.94v-3.36h.02l7.01,7.81h.74v-6.02l.14-2.97c.09-.55.58-.8,1.54-.85v-.53h-4.38v.53h-.01ZM693.2,227.27c-.25.3-.35.39-.78.39h-7.12c-.43,0-.65-.05-.88-.39h-.3l-.2,3.12h.55c.21-.88.42-1.28.65-1.52.25-.27.71-.53,2.07-.53h.71v7.12c0,1.68-.14,1.79-1.72,1.91v.53h5.31v-.53c-1.62-.12-1.79-.23-1.79-1.91v-7.12h1.03c.98,0,1.54.14,1.84.43.25.25.41.67.59,1.61l.58-.05-.21-3.08h-.34,0ZM696.15,228.19c1.47.12,1.61.21,1.61,1.91v5.38c0,1.68-.14,1.79-1.61,1.91v.53h5.01v-.53c-1.47-.12-1.61-.23-1.61-1.91v-5.38c0-1.7.14-1.79,1.61-1.91v-.53h-5.02v.53ZM711.22,228.19c1.15.06,1.62.3,1.75.85.07.5.14,1.31.14,2.97v3.17h-.05l-6.83-7.51h-2.82v.53c1.56.12,1.93.45,1.93,2.3v3.08l-.14,2.94c-.09.55-.58.83-1.54.87v.53h4.36v-.53c-1.15-.06-1.62-.32-1.72-.87-.12-.98-.16-1.96-.14-2.94v-3.36h.03l7.01,7.81h.73v-6.02l.14-2.97c.09-.55.57-.8,1.54-.85v-.53h-4.38v.53ZM726,235.87l-3.42-8.44-.58.14-3.4,8.07c-.67,1.59-1.06,1.68-2.07,1.79v.53h4.03v-.53l-.53-.05c-.67-.05-.87-.27-.6-1.06l.78-2.14h3.19l.78,1.86c.45,1.08.25,1.3-.39,1.3l-.43.05v.53h4.64v-.53c-1.01-.06-1.45-.16-2-1.52h0ZM720.46,233.37l1.28-3.49h.05l1.3,3.49h-2.64Z"/>
  </g>
  <path class="cls-3" d="M406.57,185.93c-20.13,0-36.45,16.32-36.45,36.45s16.32,36.45,36.45,36.45,36.45-16.32,36.45-36.45-16.32-36.45-36.45-36.45ZM406.57,257.98c-19.65-.02-35.58-15.94-35.59-35.59,0-19.62,15.97-35.59,35.59-35.59s35.59,15.97,35.59,35.59c-.02,19.65-15.94,35.58-35.59,35.59ZM406.57,187.83c-19.08,0-34.55,15.47-34.55,34.55s15.47,34.55,34.55,34.55,34.55-15.47,34.55-34.55-15.47-34.55-34.55-34.55ZM435.48,239.7c-.25.42-.46.48-.91.48-1.04,0-.89-1.9-1.93-1.9-1.3,0-.98,1.84-1.84,1.84-.98,0-.65-1.19-1.83-1.19-.54,0-1.78.8-2.98.8-.65,0-.98-.33-.98-1.09,0-.89-.85-1.29-1.73-1.29h-3.66c-2.18,0-3.27-1.3-3.52-1.09-.65.65,1.04,1.88,2.78,2.67,1.63.76,2.14,2.1,2.53,2.1.33,0,.37-.3.37-.47,0-.33-.08-.78-.66-1.29,0-.22.1-.27.25-.27,1.69,0,1.39,2.28,4.12,2.28,1.02,0,2.03-.52,2.48-.52,1.39,0,1.09,2.85,2.63,2.85.45,0,.54-.23.54-.78,0-.86-.14-1.78.35-1.78s1.02.98,2.5.98c-.75,1.05-1.51,2.12-2.41,3.04-.5.51-.93.78-1.62.78-2.33,0-1.88-1.95-3.59-1.95-.88,0-1.64.15-2.03.54-.25.25.1.69.45.69,1.73,0,1.19,2.41,2.53,2.41.98,0,1.29-.75,1.29-.3-.04.99-.88,1.76-1.87,1.72-.03,0-.06,0-.09,0-2.04,0-1.2-1.58-4.26-1.58-1.09,0-2.23-1.04-2.23-2.13,0-.5.74.05,2.23.05.79,0,1.29-.15,1.29-.54s-.59-.55-1.29-.55c-2.78,0-2.28-1.96-4.51-3.36-1.04-.67-1.96-1.39-2.61-2.28-.53-.8-.86-1.52-.98-2.38-.15-1.5-.84-3.26-2.43-3.26-.5,0-.5.5-.5,1.43,0,1.39-.98,1.88-.54,2.28s.99-.59,1.59-.59c.89,0,.39,1.64,2.28,3.52,2.22,2.21,4.17,1.91,4.17,5.75,0,.73-.3,1.39-.8,1.39-.89,0-.65-1.69-.65-2.73,0-.67-.53-1.58-1.49-1.93-.18-.07-.59-.2-.59.2,0,.5,1.24.8,1.24,1.73,0,.83-.39,1.89-.34,2.73.14,2.59,4.72,1.12,4.72,3.59,0,.63.38,1.52,1.15,2.04-4.79,2.49-10.11,3.79-15.52,3.79-2.42,0-4.89-.23-7.16-.77,0,0,1.49-.87,1.49-2.95,0-1.96-.42-5.03-.42-6.99s.37-3.42,1.63-4.52l4.43-3.87c.46-.41.88-.89.88-1.24,0-.15-.28-.18-.41-.07-3.26,2.65-7.28,4.88-11.34,4.88-2.43,0-5.87-.74-5.87-3.17,0-1.29,1.15-1.69,1.15-2.83,0-.5-.41-.81-.91-.81-.61,0-1.29.05-1.29-.52,0-.5.45-.61,1.04-.61,1.79,0,1.84.66,2.68.66.2,0,.33-.2.3-.38-.06-.51-.8-.81-1.37-.85-.46-.03-1.58-1.22-2.6-1.5.44-.5.59-1.39.19-1.86.61.04.64.33,1.3.33.97,0,1.63-.63,1.63-1.62,0-.74-.58-1.53-1.28-1.67-.15-.03-.39-.03-.39.11,0,.23.04.16.34.44.35.33.44.72.44,1.12s-.29.61-.71.61c-.47,0-1.11-.71-2-.71-.45,0-.8.4-.91.81-.92-.37-1.78-.51-1.78-1.11s.55-1.31,1.04-2.73c.98-2.87,2.57-5.55,2.57-6.64,0-.53-.32-.51-.32-1,.18-1.03.61-2.01,1.24-2.84.38-.38,1.49-.63,2.61.46,1.02,1.02,2.18,1.14,2.68,1.64.42.42,1.3,2.09,1.88,2.09.2,0,.39.05.39-.1,0-.18-.37-.33-.78-.79-.54-.66-.98-2.23-1.95-2.23-1.09,0-1.78-2.23-2.72-2.23-1.61,0-2.26-1.19-2.26-1.96,0-.65.48-.98.82-.98.33,0,.31.2.31.5,0,.51.05.53.39.87.27.27,1.12.57,1.48.77.45.25.6.65.8.85s.52.03.65.15c.23.21.33.66.6.89.45.45,1.04.4,1.54.89.59.59.39,1.68,1.24,2.53.35.35.66.61.99.89s.48.9.74,1.12c.61.51,1.09.51,1.29.31.15-.15-.39-.22-.77-.65-.24-.26-.23-.63-.53-.99-.33-.38-.83-.8-1.18-1.24-.68-.86-.59-1.84-1.32-2.61-.55-.55-1.2-.6-1.64-1.04s-.25-.75-.7-1.19-2.93-.99-2.09-1.81c.5-.5,1.29.65,1.58.33.2-.2.02-.33.25-.52.17-.17.74.33.97.33s.33-.21.33-.3c0-.85-2.24-1.43-2.79-1.43-.25,0-.33-.21-.33-.51,0-.63-.61-1.84-.61-2.23,0-.34.65-.6.65-.98,0-.33-.27-.26-.5-.15-.2.1-1.04.52-1.04,1.09,0,.98.65,1.09.65,2.23,0,.65-.99.6-1.69.85-.84.33-1.49.75-1.49,1.64,0,.99,1.09,1.04.74,1.39-.33.33-1.84-.45-1.84-1.69,0-1.59,1.64-1.88,1.64-2.13s-1.3-.74-1.3-2.03,1.51-1.29,1.51-3.42c.18,0,.77.59.77,1.09,0,1.04-1.19,1.59-1.19,2.53,0,.85.99,1.43,1.43,1.43.2,0,.4-.05.4-.4,0-.5-.74-.6-.74-1.49,0-1.3,3.13-2.03,3.13-3.28,0-.99-1.19-.99-1.19-1.73,0-.84,1.04-.65,1.04-.65,0,0-.1.2-.1.65,0,.65,1.24.89,1.24,1.73,0,.55-.8,1.19-.55,1.44s1.3-.89,1.69-.54c.4.4-2.28,1.53-2.28,2.63,0,.35.35,1.59.7,1.59.2,0,.33-.1.33-.5,0-.3-.13-.45-.13-1.09,0-.79,2.43-1.4,2.43-2.68,0-1.04-2.53-2.07-2.53-2.87,0-.69.14-1.29,1.09-1.43.39-.07.54,0,.54.2,0,.45-.5.55-.5,1.24,0,.98,2.53,1.24,2.53,2.68,0,.5.33.65.98.78,1.49.35,4.25.75,4.37.75s.22-.16.22-.3c0-.17-.09-.34-.61-.46-1.23-.27-3.87-.7-3.87-.94,0-.33.86-.78,2.78-1.59,2.24-.98,5.1-2.03,7.59-2.03,2.93,0,10.02,2.83,10.02,3.25,0,.52.98.91,1.09,1.06.85.85,1.79,2.88,2.33,4.07.18.4.5.55.54.54.33-.01.3-.54.3-.54,0-.99-1.98-3.82-1.98-4.12,0-.21.2-.41.2-.69,0-.3-.12-.5-.54-.69-3.26-1.54-7.84-2.88-7.84-3.32,0-.3,1.74-.3,1.74-1.15,0-.47-3.72.69-5.85.69-1.94,0-4.89.65-4.89-1.46s2.99-2.7,5.09-2.7c5.96,0,11.17,1.96,14.38,5.29,2.66,2.73,4.77,10.32,4.77,13.43,0,3.3-.91,6.38-1.11,8.64-.12,1.34.67,2.13,1.86,2.13,1.29,0,1.14-.5,2.28-.5.63,0,1.04.39,1.04.99,0,1.3.4,2.18,1.49,2.18.54,0,1.3-.5,1.3-1.43,0-.5-.2-1.19-.75-1.19s.35,1.64-.65,1.64c-.6,0-.5-.54-.5-1.19,0-1.19-.99-1.88-2.03-1.88-1.19,0-1.49.5-2.23.45-.45,0-.89-.39-.87-1.14.05-1.6,1.09-4,1.09-8.69,0-3.71-2.2-11.1-4.8-13.88-3.39-3.62-8.95-5.74-15.33-5.74-2.93,0-6.21.83-6.21,3.59,0,.78.39,1.36.9,1.9.15.16.23.57-.07.65-1.44.37-4.21,1.49-5.55,2.33-.45-.45-2.23-1.24-2.23-1.43,0-.33.4-.69.4-1.43s-.35-1.64-1.09-1.64c-.1,0-.25.11-.25.2,0,.13.16.31.16.45,0,.09-.07.12-.26.15-.33.05-.89.35-1.59,1.14-.33-.03-.91-.11-1.29.07-.53.25-.86.79-.84,1.37,0,.79,1.13,1.04,1.13,1.73,0,.45-1.19.87-1.19.87-.24-.57-.79-2.21-2.92-2.01-.14.01-.24.14-.24.27,0,.48.61.92.61,1.52,0,.74-1.56,1.34-1.56,2.87,0,.98.5,1.43,1.04,1.94-.74.33-1.26,1.28-1.26,2.18,0,1.4.86,2.11,1.56,2.53.6.35.85.89.67,1.44-.29.91-.8,2.07-.8,2.67,0,.41.2.64.2,1.04,0,.89-.46,1.35-1.06,2.78-1.07,2.55-1.09,3.26-2.49,6-.25.49-.1,1.24.26,1.5.4.28,1.78,1.03,2.28,1.03h.46c.69,0,.85.99.33,1.5-.2.19-.33.46-.33.68,0,.6.47.85.47,1.19s-.16.5-.16.85c0,1.59,1.69,1.24,1.69,1.84,0,.69-.76.99-.76,2.33,0,3.67,4.09,4.24,7.25,4.49,2.39.22,2.59.68,2.68,2.93.11,2.92,1.09,5.16,1.09,7.59,0,.72-.24,1.41-.68,1.99-.47.53-1.14.64-1.79.46-14.49-4.15-24.54-17.2-24.54-32.41.02-18.52,14.98-33.56,33.51-33.67,18.61,0,33.69,15.09,33.69,33.69.02,6.1-1.64,12.09-4.79,17.32ZM435.2,229.06c0-1.39-1.62-1.64-1.62-1.64-.65-.1-1.19.1-.35.59.35.2,1.04.51,1.04,1.05,0,.69-.59.8-1.3,1.09-.27.11-.54.2-.54.65s.65.52,2.03.76c.83.14,1.52.33,1.52,1,0,.55-.33.98-.13.98.54-.02.97-.45.98-.98,0-1.3-1.08-1.69-2.87-1.96,0,0,1.28-.2,1.28-1.49l-.03-.06ZM398.12,206.79c.69,0,.99-.85,1.73-.85.85,0,1.19.59,1.88.59,2.09,0,2.78-.84,4.47-.84,2.23,0,2.33,2.48,4.26,2.48.6,0,2.38-.2,2.93-.2,1.69,0,1.96,1.49,3.42,1.49.65,0,1.43-.4,1.43-.84,0-.15-.5.05-1.49.05-1.3,0-1.23-1.49-3.37-1.49-.37,0-1.93.2-2.48.2-1.79,0-1.64-2.78-4.71-2.78-1.54,0-2.53.99-4.47.99-.6,0-.85-.65-1.88-.65-.69,0-1.14.98-1.73.98-.65,0-.69-.65-1.88-.65-.65,0-1.58.69-1.58,1.29,0,.5.05,1.3.54,1.3.4,0,.45-.2.45-.54,0-.33-.1-.45-.1-.8,0-.33.33-.5.69-.5.54,0,.6.74,1.88.74h0ZM405.31,210.44c.86,0,1.84.67,2.61,1.03.72.34,1.61.71,2.28.71,2.88,0,4.21,5.64,7.29,5.64.16,0,.4-.07.4-.26,0-.33-.5-.54-1.24-.89-.47-.22-.8-.7-.8-.89,0-.35.25-.33.55-.33.59,0,.89-.05.89-.4,0-.2-.23-.32-.89-.5-1.1-.33-1.54-1.94-2.98-2.59-.07-.03-.52-.24-.52-.43s2.51-.3,3.99-.3c3.12,0,2.72,5.69,6.71,5.69,1.52,0,2.8,1.69,2.8,1.2,0-.6-1.19-1.88-2.78-1.88-2.6,0-2.98-5.93-6.75-5.93-1.79,0-5.31.5-6.7.5-1.3,0-4.39-1.26-4.39-1.61,0-.26.92-.07,1.15-.31.13-.14.06-.43-.27-.66-.33-.23-.71-.35-1.11-.35-.91,0-1.7.77-2.37,1.29-.8.63-1.71,1.39-3.03,1.39-.88.02-1.76-.08-2.61-.32-.2-.05-.52-.28-.7-.1-.31.31-.11.64.47.88.67.29,1.4.57,2.84.57,1.87,0,3.26-1.19,5.16-1.19l-.03.03ZM425.94,226.73l-1.64-3.72c-.89-1.64-2.18-2.72-3.57-2.72-.28,0-.99.05-.99.39,0,.5,1.59-.54,3.59,2.61.73,1.12,1.21,3.36,1.54,4.41.25.8.65,1.3.44,1.54-.35.35-.84-.15-1.19-.89-.42-.9-1.29-2.09-1.84-2.09-.3,0-.55-.05-.55.2,0,.51.96.93.6,1.29-.27.27-.69-.35-2.18-1.14-.91-.48-1.84-.65-2.48-.74-.33-.04-.54.03-.54.33s.31.39.54.45c.64.15,2.41,1.26,2.98,1.88,2.53,2.83,6.68,4.56,10.32,5.26.98.19,1.29-.35,1.29-.5,0-.25-.15-.25-.8-.5-1.49-.57-3.28-1.78-2.73-2.33.35-.35,1.78-.05,2.13-.4.17-.17-.22-.76-.85-1.39-.49-.4-1.1-.63-1.74-.64-.89,0-1.96-.26-2.38-1.24l.04-.05Z"/>
  <path class="cls-3" d="M412.29,222.22c1.05.57,3.74.64,5.08.75.38.02.76.07,1.13.16.29.1.65.31.98.43.43.16.74.13.74-.2,0-.5-.73-1.07-1.53-1.26-.34-.08-.81-.14-1.34-.18-1.25-.1-3.65-.15-4.63-.75-.65-.42-1.2-.98-1.6-1.65-.18-.33-.52-.63-.84-.32-.63.63.91,2.44,1.96,3.02h.04ZM416.96,220.85c.8,0,1.86-.42,1.86-.77,0-.26-.21-.31-.39-.31-.28,0-.93.09-1.47.09-4.02,0-4.59-7.39-10.1-7.39-.16,0-.5,0-.61-.16l-.03-.05-.03-.06c-.11-.23-.26-.42-.96-.42-.55,0-1.24.26-1.83.51-.33.12-1.09.49-1.4.49s-.51-.02-.64-.02c-.18,0-.28.09-.28.29,0,.38.99.81,1.63.81.42,0,.85-.17,1.25-.28.5-.13,1.17-.27,2.22-.27,5.42,0,5.66,7.54,10.71,7.54h.07ZM434.77,234.16c-1.54,0-1.79,1.24-3.72,1.24-2.83,0-3.42-.99-6.69-.99-1.29,0-2.18.8-4.12.8-1.28,0-4.12-1.09-4.12-2.48,0-.08.21-.27.45-.1.99.7,1.19.73,1.58.74.31,0,.54-.1.54-.35,0-.15-1.07-.81-1.69-1.24-1.28-.89-3.37-1.94-3.37-2.67,0-.25.25-.29.5-.28.81.03,2.33.63,2.83.63.2,0,.4,0,.4-.35s-1.53-.99-3.08-1.36l-1.88-.53c-.33-.13-.5-.24-.5-.59,0-.2.25-.4.54-.4h3.02c.65,0,1.04.06,1.04-.25,0-.44-1.04-.74-2.09-.74-2.33,0-4.15.07-5.55-1.3-1.49-1.49-1.84-4.89-3.07-6.1-1.3-1.3-2.38-.99-2.38-1.49,0-.35,1.09-.45,1.54-.45.85,0,1.47.69,1.84.69.33,0,.33-.35.33-.4,0-.6-1.38-1.24-2.13-1.24-.89,0-2.93.25-3.59.25-1.14,0-1.43-.89-1.93-.89-.3,0-.37.1-.35.35.05.59,1.19,1.54,2.28,2.13.8.44,3.15,1.21,3.67,1.69.65.59.33.98-.1.98-.45,0-.69-.2-1.24-.2-.25,0-.35.15-.35.35,0,.98,3.33,2.28,3.33,5.06,0,1.72-.85,2.69-.85,4.12,0,1.19.65,1.62.65,1.64.4.24.6.1.6-.25,0-.25-.45-.45-.45-1.39,0-1.09.74-2.67.73-2.72.13-.37.17-.98.51-.98.85,0,.79,1.93,1.54,1.93.4,0,.99-.2.99.1,0,.6-2.09,1.3-1.59,1.84.35.35,1.64-.8,1.94-.8.35,0,.51.34.15.69-.32.32-1.69,1.63-1.69,2.13,0,.4,1.09,1.04,1.49,1.04.5,0,.69-.5,1.19-.5,1.63,0,3.75,2.93,5.21,3.77,1.12.67,2.09.89,3.17.89s2.18-.46,3.17-.46c1.44,0,2.92,1.35,4.21,1.35.7,0,.4-1.16,1.09-1.16.77,0,1.54,1.18,2.38,1.18s2.74-1.69,3.67-1.69c.87,0,1.09.65,1.09,1.47,0,.3.9.05.9-.98,0-.94-.65-1.73-1.96-1.73l-.11-.04ZM398.22,209.27c.6,0,1.52.34,1.88.34.45,0,1.54-.34,1.54-.59,0-.45-1.04-.1-1.64-.42-.65-.35-1.04-.67-1.78-.67-.4,0-.98.03-1.19.28-.28.28-.79.11-.79.41,0,.39.64.65,1.14.65h.85s0,0,0,0ZM417.97,229.38c-.57.57,2.02,2.1,2.02,2.44,0,.9.59,1.37,1.49,1.37.25,0,.48-.12.48-.34,0-.97-3.6-3.87-3.99-3.48h0ZM401.74,220.25c-.23-.2-.45.05-.45.24,0,.14,0,.27.15.4.51.46,1.24,1.78,1.24,3.67,0,.99-1.04,2.87-1.04,4.12,0,2.13,1.73,2.63,2.09,2.28.33-.3-1.29-.85-1.29-2.28s1.04-3.07,1.04-4.12c0-.37,0-.79-.07-1.29-.04-.33.21-.37.35-.2.42.49.61.93.61,1.49,0,1.39-.69,2.13-.69,2.73,0,.2-.05.25.15.25.33,0,1.43-1.39,1.43-2.98,0-1.79-2.09-3.03-3.52-4.31h0ZM396.54,219.86c-1.11-.65-5.13-1.75-5.13-2.07s.37-.35,1.11-.35c.28,0,.65.02.65-.18,0-.24-1.42-.85-2.18-.85-.98,0-1.05.54-1.05.99.04.91.41,1.77,1.03,2.43.2.2.07,1.9.81,1.9.46,0,.85-.26.85-1.16,0-.33,2.55.2,2.55.5,0,.16-.27.26-.27.39,0,.21.02.26.4.26.69,0,2.01-.35,2.01-1.08,0-.31-.27-.5-.78-.78ZM391.42,219.05c0-.31.51-.16,1.1.03l1.64.55c.35.15.88.33.88.6,0,.35-3.59-.79-3.59-1.18h-.03ZM391.38,222.26c-.2.2-.18.53-.18,1.14,0,.33.17.22.65-.08,1.16-.71,1.41-.83,1.2-1.04-.16-.16-1.47-.23-1.68-.02h0ZM410.07,240.46c0-1.14.63-2.13.4-2.13-.6,0-1.29,1.09-1.29,2.03,0,1.39.53,1.87.99,2.33,1.14,1.14,2.53.65,3.28,1.39.79.8.3,1.96.3,2.77,0,2.48,1.52,3.41,3.27,4.12,1.3.54.84,2.13,1.29,2.13.8,0,1.24-.69,1.24-1.44,0-.65-.42-1.3-1.29-1.69-1.34-.54-3.47-.69-3.47-3.13,0-.89.4-1.96.4-2.73,0-1.14-.72-1.59-2.38-1.59-1.75,0-2.73-.78-2.73-2.09v.02Z"/>
</svg>